<?xml version="1.0" encoding="UTF-8" standalone="no"?>
<!-- Created with Inkscape (http://www.inkscape.org/) -->

<svg
   width="210mm"
   height="297mm"
   viewBox="0 0 210 297"
   version="1.1"
   id="svg320"
   xml:space="preserve"
   inkscape:export-filename="contactme.png"
   inkscape:export-xdpi="96"
   inkscape:export-ydpi="96"
   inkscape:version="1.2.2 (b0a8486541, 2022-12-01)"
   sodipodi:docname="drawing.svg"
   xmlns:inkscape="http://www.inkscape.org/namespaces/inkscape"
   xmlns:sodipodi="http://sodipodi.sourceforge.net/DTD/sodipodi-0.dtd"
   xmlns="http://www.w3.org/2000/svg"
   xmlns:svg="http://www.w3.org/2000/svg"><sodipodi:namedview
     id="namedview322"
     pagecolor="#ffffff"
     bordercolor="#000000"
     borderopacity="0.25"
     inkscape:showpageshadow="2"
     inkscape:pageopacity="0.0"
     inkscape:pagecheckerboard="0"
     inkscape:deskcolor="#d1d1d1"
     inkscape:document-units="mm"
     showgrid="false"
     inkscape:zoom="0.68506594"
     inkscape:cx="397.04207"
     inkscape:cy="561.9897"
     inkscape:window-width="1920"
     inkscape:window-height="935"
     inkscape:window-x="1600"
     inkscape:window-y="32"
     inkscape:window-maximized="1"
     inkscape:current-layer="layer1" /><defs
     id="defs317" /><g
     inkscape:label="Layer 1"
     inkscape:groupmode="layer"
     id="layer1"><g
       style="fill:none"
       id="g356"
       transform="matrix(0.26458333,0,0,0.26458333,-43.94268,58.334534)"><path
         d="m 482.5515,772.8245 h 375 V -6.1754952 h -295 c -44.1828,0 -80,35.8172002 -80,80.0000002 z"
         fill="#6070ff"
         id="path347" /></g><g
       style="fill:none"
       id="g345"
       transform="matrix(0.26458333,0,0,0.26458333,113.74829,67.781005)"><rect
         x="157"
         y="29.399401"
         width="74.701202"
         height="17.2106"
         transform="rotate(-23.1765,157,29.3994)"
         fill="#7f8cff"
         id="rect324" /><path
         d="m 259.207,50.4103 c -3.469,-6.088 -8.338,-11.2827 -14.214,-15.1637 -5.876,-3.8809 -12.593,-6.3389 -19.609,-7.175 -7.015,-0.836 -14.131,-0.0266 -20.771,2.3627 -6.64,2.3892 -12.618,6.2913 -17.45,11.3901 -4.831,5.0989 -8.381,11.2512 -10.36,17.9589 -1.98,6.7077 -2.335,13.7822 -1.036,20.6506 1.299,6.8684 4.216,13.3378 8.514,18.8843 4.298,5.5468 9.856,10.0138 16.224,13.0408 l 8.389,-17.2579 c -3.628,-1.7245 -6.795,-4.2697 -9.243,-7.4295 -2.449,-3.1599 -4.11,-6.8455 -4.85,-10.7584 -0.741,-3.9129 -0.538,-7.9433 0.589,-11.7646 1.128,-3.8214 3.15,-7.3264 5.903,-10.2312 2.753,-2.9048 6.158,-5.1278 9.941,-6.4889 3.783,-1.3612 7.837,-1.8223 11.833,-1.346 3.997,0.4763 7.824,1.8766 11.172,4.0876 3.347,2.2109 6.121,5.1704 8.097,8.6387 z"
         fill="#ffffff"
         id="path326" /><circle
         cx="10.5"
         cy="44.5"
         r="10.5"
         fill="#7f8cff"
         id="circle328" /><rect
         width="76.175003"
         height="13.6273"
         transform="matrix(0.801365,0.598176,0.598176,-0.801365,105.805,653.889)"
         fill="#7f8cff"
         id="rect330"
         x="0"
         y="0" /><circle
         cx="122.228"
         cy="687.21899"
         r="15.5552"
         transform="rotate(48.9435,122.228,687.219)"
         fill="#ffffff"
         id="circle332" /></g></g></svg>
